# File created by Blade
# Date/Time:  Wed Jan 21 14:37:15 2015
# Frame Rate: 120.000 fps
#------------------------------------------------------
:FULLY-SPECIFIED
:DEGREES
820
root 18.826324 35.546900 -21.517320 -173.101828 -4.596886 -178.426647
Spine -14.843971 -2.208931 0.439022
Head 6.126749 -0.314963 4.732095
LeftShoulder -13.739735 -34.061125 19.765981
LeftArm -2.614842 6.682657 -12.241543
LeftForeArm 17.898393 0.000000 -0.559061
LeftHand 0.478960 -0.000000 -9.241994
LeftHandThumb1 -26.253704 0.000000 33.147579
RightShoulder -11.680519 -2.591098 -9.863901
RightArm 1.049730 31.976671 13.472706
RightForeArm -39.493174 0.000000 6.705844
RightHand 1.262811 0.000000 9.018179
RightHandThumb1 -24.326973 -0.000000 -32.862282
LeftUpLeg -0.512651 10.941451 2.136387
LeftLeg -5.951758 -0.000000 0.000000
LeftFoot -19.213053 28.759634 -10.932328
LeftToeBase 27.356909 -0.000000 -0.000000
RightUpLeg -0.618148 -10.275216 2.183679
RightLeg -2.944051 -0.000000 0.000000
RightFoot -20.759873 -27.095138 14.518181
RightToeBase 23.547830 -0.000000 -0.000000
821
root 18.827790 35.546445 -21.525659 -173.009966 -4.521751 -178.425464
Spine -14.903427 -2.171014 0.409399
Head 6.150104 -0.202606 4.855610
LeftShoulder -14.027736 -34.095509 20.065289
LeftArm -3.043101 6.169474 -12.084834
LeftForeArm 18.189700 -0.000000 -0.583177
LeftHand 0.309075 -0.000000 -9.343639
LeftHandThumb1 -26.253704 0.000000 33.147579
RightShoulder -11.745417 -2.451741 -10.005832
RightArm 0.603356 32.288777 13.223996
RightForeArm -39.794627 0.000000 6.745408
RightHand 1.057283 0.000000 8.866700
RightHandThumb1 -24.326973 -0.000000 -32.862282
LeftUpLeg -0.556058 10.967245 2.120137
LeftLeg -6.001734 -0.000000 0.000000
LeftFoot -19.225330 28.814085 -10.990074
LeftToeBase 27.186128 -0.000000 -0.000000
RightUpLeg -0.684985 -10.243647 2.190263
RightLeg -2.977948 -0.000000 0.000000
RightFoot -20.732388 -27.027073 14.485758
RightToeBase 23.593730 -0.000000 -0.000000
822
root 18.830407 35.545942 -21.534599 -172.927813 -4.494508 -178.422778
Spine -14.957680 -2.158202 0.378257
Head 6.154901 -0.117170 4.969502
LeftShoulder -14.279260 -34.166022 20.341513
LeftArm -3.435598 5.843137 -11.944165
LeftForeArm 18.423779 -0.000000 -0.609924
LeftHand 0.145794 0.000000 -9.311937
LeftHandThumb1 -26.253704 0.000000 33.147579
RightShoulder -11.736146 -2.069352 -10.213325
RightArm -0.093375 32.451965 12.881903
RightForeArm -40.193611 -0.000000 6.879378
RightHand 0.855020 -0.000000 8.847011
RightHandThumb1 -24.326973 -0.000000 -32.862282
LeftUpLeg -0.608545 10.935455 2.115683
LeftLeg -6.018616 -0.000000 0.000000
LeftFoot -19.240211 28.862989 -11.016618
LeftToeBase 27.313931 -0.000000 -0.000000
RightUpLeg -0.732454 -10.236147 2.209474
RightLeg -3.026827 -0.000000 0.000000
RightFoot -20.710960 -27.010390 14.463420
RightToeBase 23.636643 -0.000000 -0.000000
823
root 18.832430 35.545036 -21.543368 -172.853509 -4.421925 -178.408878
Spine -15.008038 -2.101853 0.362239
Head 6.157874 -0.006600 5.073628
LeftShoulder -14.542655 -34.215839 20.590779
LeftArm -3.773231 5.591814 -11.779213
LeftForeArm 18.591331 0.000000 -0.614300
LeftHand -0.027546 -0.000000 -9.469115
LeftHandThumb1 -26.253704 0.000000 33.147579
RightShoulder -11.750768 -1.812813 -10.422387
RightArm -0.660482 32.671271 12.663143
RightForeArm -40.308558 -0.000000 6.922336
RightHand 0.708945 0.000000 8.562597
RightHandThumb1 -24.326973 -0.000000 -32.862282
LeftUpLeg -0.654375 10.990268 2.118673
LeftLeg -6.024242 -0.000000 0.000000
LeftFoot -19.260252 28.874802 -10.996856
LeftToeBase 27.327591 -0.000000 -0.000000
RightUpLeg -0.787543 -10.191620 2.233950
RightLeg -3.054993 -0.000000 0.000000
RightFoot -20.691329 -27.003672 14.449003
RightToeBase 23.652845 -0.000000 -0.000000
